[center][img]http://img402.imageshack.us/img402/2182/limitlessmovieposter[/img]



[img]http://leetleech.org/images/48874973695367351744.png[/img]


Format                           : AVI
Format/Info                      : Audio Video Interleave
File size                        : 998 MiB
Duration                         : 1h 32mn
Overall bit rate                 : 1 508 Kbps
Writing application              : VirtualDubMod 1.5.10.2 (build 2540/release)
Writing library                  : VirtualDub build 32839/release

Video
ID                               : 0
Format                           : MPEG-4 Visual
Format profile                   : Advanced Simple@L5
Format settings, BVOP            : Yes
Format settings, QPel            : No
Format settings, GMC             : No warppoints
Format settings, Matrix          : Custom
Codec ID                         : XVID
Codec ID/Hint                    : XviD
Duration                         : 1h 32mn
Bit rate                         : 1 376 Kbps
Width                            : 692 pixels
Height                           : 294 pixels
Display aspect ratio             : 2.35:1
Frame rate                       : 23.976 fps
Color space                      : YUV
Chroma subsampling               : 4:2:0
Bit depth                        : 8 bits
Scan type                        : Progressive
Bits/(Pixel*Frame)               : 0.282
Stream size                      : 910 MiB (91%)
Writing library                  : XviD 1.2.1 (UTC 2008-12-04)

Audio
ID                               : 1
Format                           : MPEG Audio
Format version                   : Version 1
Format profile                   : Layer 3
Mode                             : Joint stereo
Mode extension                   : MS Stereo
Codec ID                         : 55
Codec ID/Hint                    : MP3
Duration                         : 1h 32mn
Bit rate mode                    : Variable
Bit rate                         : 119 Kbps
Nominal bit rate                 : 128 Kbps
Channel(s)                       : 2 channels
Sampling rate                    : 48.0 KHz
Stream size                      : 78.9 MiB (8%)
Alignment                        : Aligned on interleaves
Interleave, duration             : 24 ms (0.58 video frame)
Interleave, preload duration     : 518 ms
Writing library                  : LAME3.99a
Encoding settings                : -m j -V 4 -q 3 -lowpass 17 --abr 128




[url]http://www.imdb.com/title/tt1294688/[/url]




[IMG]http://leetleech.org/images/89524873606771859129.png[/IMG]



Users: 6.8/10 (1,076 votes) 9 reviews | Critics: 59 reviews

The story follows a married couple, apart for a night while the husband takes a business trip with a colleague to whom he's attracted. While he's resisting temptation, his wife encounters her past love.
Director:
Massy Tadjedin
Writer:
Massy Tadjedin
Stars:
Keira Knightley, Sam Worthington and Eva Mendes 


[img]http://leetleech.org/images/95521316153253938506.png[/img]



 
http://img140.imageshack.us/img140/5120/vlcsnap2011032109h28m46.png
 
http://img145.imageshack.us/img145/1732/vlcsnap2011032109h29m49.png
 
http://img812.imageshack.us/img812/6555/vlcsnap2011032109h28m59.png







Greetz to Imagine ,Flawl3ss,DiLLoN,BDK,NOiR,TOXiCiNK,THC,Ez,Rx,





[img]http://img411.imageshack.us/img411/6898/sig1n.jpg[/img]




